Coordinates
version=1
nRows=24
nColumns=38
inDegrees=no

Units are S.I. units (second, meters, Newtons, ...)
If the header above contains a line with 'inDegrees', this indicates whether rotational values are in degrees (yes) or radians (no).

endheader
time	pelvis_tilt	pelvis_list	pelvis_rotation	pelvis_tx	pelvis_ty	pelvis_tz	hip_flexion_r	hip_adduction_r	hip_rotation_r	knee_angle_r	ankle_angle_r	subtalar_angle_r	mtp_angle_r	hip_flexion_l	hip_adduction_l	hip_rotation_l	knee_angle_l	ankle_angle_l	subtalar_angle_l	mtp_angle_l	lumbar_extension	lumbar_bending	lumbar_rotation	arm_flex_r	arm_add_r	arm_rot_r	elbow_flex_r	pro_sup_r	wrist_flex_r	wrist_dev_r	arm_flex_l	arm_add_l	arm_rot_l	elbow_flex_l	pro_sup_l	wrist_flex_l	wrist_dev_l
0.62	3.01084	1.43583	-1.46098	0.711015	-0.696154	1.03567	0.0375007	0.0860938	-0.205093	0.535202	-0.161305	0	0	0.210324	-0.0659457	-0.240816	0.986027	-0.0827475	0	0	-0.214914	0.164112	0.202577	-0.0736104	-0.713254	0.109821	1.72713	0.0092323	0	0	0.262004	-0.491612	0.260566	1.21403	0.771683	0	0
0.63	3.01698	1.43491	-1.46968	0.71183	-0.687963	1.03601	0.0242657	0.0863087	-0.204226	0.529327	-0.157328	0	0	0.217863	-0.0676037	-0.257226	0.958333	-0.0910191	0	0	-0.215627	0.162467	0.203035	-0.0623617	-0.702519	0.112221	1.7131	0.0372364	0	0	0.259982	-0.491396	0.256044	1.21607	0.773256	0	0
0.64	3.02713	1.43456	-1.48218	0.71259	-0.679766	1.03627	0.0123535	0.0859685	-0.201564	0.52301	-0.153377	0	0	0.224684	-0.0687069	-0.275125	0.926914	-0.102877	0	0	-0.21556	0.160119	0.202639	-0.0522558	-0.689492	0.112762	1.69915	0.0850297	0	0	0.257443	-0.491246	0.250726	1.21784	0.775492	0	0
0.65	3.03841	1.43548	-1.49457	0.713175	-0.671631	1.03626	0.00253349	0.0852074	-0.19887	0.518525	-0.148822	0	0	0.232833	-0.0684304	-0.289938	0.89471	-0.114915	0	0	-0.214543	0.157567	0.201752	-0.0454869	-0.675329	0.109478	1.68749	0.153486	0	0	0.255617	-0.491433	0.246366	1.21999	0.779859	0	0
0.66	3.04856	1.43746	-1.50526	0.713648	-0.663495	1.03603	-0.00530796	0.0838807	-0.199386	0.516411	-0.145133	0	0	0.241174	-0.0668213	-0.301119	0.860739	-0.123933	0	0	-0.211836	0.155569	0.201401	-0.040555	-0.664306	0.106339	1.67762	0.20144	0	0	0.255475	-0.491306	0.244583	1.22021	0.783028	0	0
0.67	3.05801	1.4404	-1.51506	0.714058	-0.655324	1.0356	-0.0120913	0.08259	-0.19914	0.514901	-0.140796	0	0	0.249468	-0.0641847	-0.309983	0.824397	-0.133727	0	0	-0.20782	0.15374	0.200785	-0.0369265	-0.653019	0.102139	1.66867	0.254769	0	0	0.254922	-0.49033	0.242136	1.22059	0.78163	0	0
0.68	3.06733	1.44348	-1.52476	0.714407	-0.647189	1.03502	-0.0178384	0.0812365	-0.198349	0.514924	-0.136177	0	0	0.256949	-0.0605939	-0.317092	0.785755	-0.142585	0	0	-0.203761	0.152196	0.200232	-0.0338378	-0.643493	0.098456	1.66132	0.299607	0	0	0.254647	-0.489163	0.24021	1.2211	0.775657	0	0
0.69	3.07854	1.44667	-1.5363	0.714679	-0.639077	1.03431	-0.0225955	0.0796017	-0.197195	0.516367	-0.131535	0	0	0.263444	-0.0558496	-0.322947	0.74555	-0.15049	0	0	-0.199551	0.150699	0.199644	-0.030849	-0.636422	0.0964462	1.65524	0.331503	0	0	0.25525	-0.48977	0.240334	1.22047	0.777865	0	0
0.7	3.08918	1.45027	-1.54726	0.714869	-0.630891	1.03345	-0.0267803	0.0781983	-0.195521	0.518122	-0.126537	0	0	0.269355	-0.0502686	-0.327299	0.704063	-0.157904	0	0	-0.194705	0.149438	0.19888	-0.0284418	-0.630722	0.0950181	1.65025	0.357537	0	0	0.255531	-0.489794	0.239722	1.21954	0.780547	0	0
0.71	3.0988	1.45408	-1.55703	0.714985	-0.622623	1.03245	-0.0307803	0.077027	-0.193305	0.51989	-0.120792	0	0	0.274339	-0.043749	-0.329574	0.660804	-0.165201	0	0	-0.189442	0.148524	0.197798	-0.0266558	-0.625438	0.0932666	1.64616	0.382961	0	0	0.255306	-0.488957	0.238044	1.21867	0.780739	0	0
0.72	3.10425	1.4577	-1.56263	0.714993	-0.61432	1.03132	-0.0348207	0.0760556	-0.191376	0.521984	-0.115943	0	0	0.278264	-0.0370599	-0.330544	0.616724	-0.170282	0	0	-0.184525	0.148386	0.196857	-0.0253414	-0.622044	0.0918305	1.64359	0.399531	0	0	0.255287	-0.488173	0.236932	1.21792	0.780808	0	0
0.73	3.10753	1.46163	-1.56619	0.714913	-0.605984	1.03007	-0.0382818	0.0750741	-0.189048	0.524751	-0.110764	0	0	0.281429	-0.0300131	-0.329926	0.571429	-0.174809	0	0	-0.179218	0.148577	0.196034	-0.0243812	-0.619882	0.0909489	1.64183	0.413871	0	0	0.255357	-0.487416	0.236163	1.21688	0.781677	0	0
0.74	3.10878	1.46633	-1.56789	0.7148	-0.597548	1.02867	-0.0408059	0.0742852	-0.186973	0.528177	-0.105196	0	0	0.28456	-0.0232749	-0.328759	0.526138	-0.178977	0	0	-0.172762	0.149298	0.195416	-0.0241098	-0.618521	0.0902454	1.64068	0.425282	0	0	0.254523	-0.486111	0.234299	1.21557	0.782431	0	0
0.75	3.10853	1.47189	-1.56825	0.714711	-0.58898	1.02709	-0.0422595	0.0737431	-0.185245	0.532189	-0.0987051	0	0	0.287977	-0.0166655	-0.325407	0.480253	-0.184578	0	0	-0.165034	0.150006	0.19452	-0.0242053	-0.617236	0.0900754	1.63976	0.434887	0	0	0.253547	-0.485097	0.232811	1.21392	0.783688	0	0
0.76	3.10403	1.47775	-1.56459	0.714611	-0.580337	1.02536	-0.0435139	0.0736204	-0.183294	0.535651	-0.0929496	0	0	0.291359	-0.0107511	-0.320328	0.435558	-0.189728	0	0	-0.156993	0.150999	0.193767	-0.0243561	-0.616706	0.0904396	1.63922	0.439465	0	0	0.252506	-0.484509	0.231836	1.21274	0.784088	0	0
0.77	3.10197	1.48332	-1.56236	0.714369	-0.571687	1.02356	-0.0452148	0.0732554	-0.181537	0.53923	-0.0865509	0	0	0.294629	-0.00470493	-0.314203	0.3935	-0.195258	0	0	-0.149261	0.151842	0.191964	-0.0245365	-0.616403	0.090474	1.63869	0.441001	0	0	0.251645	-0.484105	0.230974	1.2118	0.783492	0	0
0.78	3.09478	1.48864	-1.55511	0.714119	-0.56294	1.0217	-0.0477617	0.0738064	-0.17905	0.542359	-0.0805418	0	0	0.297947	0.000140878	-0.309476	0.355105	-0.199676	0	0	-0.141827	0.153107	0.190152	-0.0249518	-0.616117	0.0899284	1.63825	0.439852	0	0	0.250571	-0.483633	0.229845	1.2111	0.782905	0	0
0.79	3.07833	1.4941	-1.53895	0.713858	-0.554043	1.0198	-0.050416	0.0743275	-0.17807	0.545034	-0.0750118	0	0	0.301509	0.00364548	-0.305305	0.320349	-0.204262	0	0	-0.134052	0.154996	0.188774	-0.0248602	-0.616325	0.0911212	1.6376	0.437601	0	0	0.249376	-0.482722	0.228564	1.20989	0.782499	0	0
0.8	3.05661	1.49937	-1.51751	0.713588	-0.545001	1.01785	-0.0537061	0.0754434	-0.17615	0.547535	-0.0691498	0	0	0.305258	0.00628273	-0.301733	0.290132	-0.20903	0	0	-0.126179	0.156866	0.187421	-0.0242514	-0.618313	0.0940639	1.63651	0.4352	0	0	0.248274	-0.482041	0.227679	1.20843	0.782141	0	0
0.81	3.03018	1.50274	-1.49111	0.713235	-0.535928	1.01602	-0.0591547	0.0764624	-0.17444	0.549749	-0.0651038	0	0	0.30817	0.0077996	-0.300869	0.266807	-0.211586	0	0	-0.120768	0.158858	0.185966	-0.0230385	-0.620394	0.0968762	1.63575	0.433698	0	0	0.247831	-0.481553	0.227218	1.20724	0.782232	0	0
0.82	3.00073	1.50553	-1.46182	0.712862	-0.526717	1.01423	-0.0662609	0.0775679	-0.175074	0.550054	-0.0609761	0	0	0.310406	0.00884008	-0.299882	0.247934	-0.214248	0	0	-0.115734	0.160965	0.184402	-0.0210708	-0.622569	0.10064	1.63467	0.431882	0	0	0.247377	-0.481295	0.22701	1.20572	0.783646	0	0
0.83	2.97476	1.50757	-1.43665	0.712535	-0.517383	1.01254	-0.07417	0.078069	-0.175436	0.55059	-0.0575813	0	0	0.311785	0.00944864	-0.300334	0.234053	-0.216716	0	0	-0.111549	0.162628	0.183203	-0.0182285	-0.624706	0.105128	1.63312	0.429567	0	0	0.246838	-0.481144	0.226637	1.20406	0.785704	0	0
0.84	2.95468	1.50883	-1.41819	0.712288	-0.507913	1.01098	-0.0831429	0.0780059	-0.174817	0.550663	-0.0549779	0	0	0.312333	0.00958865	-0.302993	0.225555	-0.218585	0	0	-0.108363	0.163484	0.182556	-0.0145629	-0.626696	0.110292	1.63087	0.427305	0	0	0.246003	-0.480425	0.225519	1.20242	0.785553	0	0
0.85	2.94239	1.50889	-1.4084	0.712126	-0.49835	1.00954	-0.0931589	0.0773904	-0.173324	0.551562	-0.0531628	0	0	0.311707	0.00911233	-0.307788	0.223053	-0.219841	0	0	-0.106856	0.163655	0.182713	-0.0102612	-0.62845	0.115543	1.62838	0.425148	0	0	0.245536	-0.479793	0.224589	1.20081	0.784093	0	0
